<?xml version="1.0" encoding="UTF-8"?>
<svg width="54px" height="54px" viewBox="0 0 54 54" version="1.1" xmlns="http://www.w3.org/2000/svg" xmlns:xlink="http://www.w3.org/1999/xlink">
    <title>gear-icon</title>
    <g id="gear-icon" stroke="none" stroke-width="1" fill="none" fill-rule="evenodd">
        <g id="Group-17" fill-rule="nonzero">
            <circle id="Oval" fill="#F2F2F2" cx="27" cy="27" r="27"></circle>
            <path d="M28.6175353,29.2052189 L35.2252534,29.2052189 L35.2252534,37.7076515 C35.2252534,38.4201681 35.88294,39 36.6911269,39 C37.4993139,39 38.1570004,38.4201681 38.1570004,37.7076515 L38.1573766,27.9274657 L38.157753,27.9082265 L38.157753,17.8003096 C38.157753,17.7764264 38.1570004,17.7522114 38.1554955,17.7283282 C38.1163653,17.0386997 37.4729763,16.5 36.6911269,16.5 C35.88294,16.5 35.2252534,17.0798319 35.2252534,17.7923485 L35.2252534,26.6205219 L28.6175353,26.6205219 L28.6175353,17.7923485 C28.6175353,17.0798319 27.960225,16.5 27.1516618,16.5 C26.3434749,16.5 25.6857883,17.0798319 25.6857883,17.7923485 L25.6857883,26.6205219 L19.4317459,26.6205219 L19.4317459,17.8003096 C19.4317459,17.087793 18.7740594,16.5079611 17.9658724,16.5079611 C17.1576855,16.5079611 16.4999989,17.087793 16.4999989,17.8003096 L16.4999989,27.9128704 C16.4999989,28.625387 17.1576855,29.2052189 17.9658724,29.2052189 L25.6857883,29.2052189 L25.6857883,37.7076515 C25.6857883,38.4201681 26.3434749,39 27.1516618,39 C27.960225,39 28.6175353,38.4201681 28.6175353,37.7076515 L28.6175353,29.2052189 L28.6175353,29.2052189 Z" id="Shape" fill="#2D3737" transform="translate(27.328876, 27.750000) scale(-1, 1) translate(-27.328876, -27.750000) "></path>
        </g>
    </g>
</svg>