<?xml version="1.0" encoding="UTF-8"?>
<svg width="54px" height="55px" viewBox="0 0 54 55" version="1.1" xmlns="http://www.w3.org/2000/svg" xmlns:xlink="http://www.w3.org/1999/xlink">
    <title>person-icon</title>
    <defs>
        <path d="M18.2679656,16.0118602 C18.2679656,19.3526648 20.9859344,22.0706336 24.3267391,22.0706336 C27.6675437,22.0706336 30.3855125,19.3526648 30.3855125,16.0118602 C30.3855125,12.6710555 27.6675437,9.95308672 24.3267391,9.95308672 C20.9859344,9.95308672 18.2679656,12.6710555 18.2679656,16.0118602 M15.2054656,16.0118602 C15.2054656,10.9744305 19.2893094,6.89058672 24.3267391,6.89058672 C29.3641687,6.89058672 33.4480125,10.9744305 33.4480125,16.0118602 C33.4480125,21.0492898 29.3641687,25.1331336 24.3267391,25.1331336 C19.2893094,25.1331336 15.2054656,21.0492898 15.2054656,16.0118602 M38.3177703,40.7323602 C38.3177703,41.577993 37.6317703,42.2636102 36.7865203,42.2636102 C35.9408875,42.2636102 35.2552703,41.577993 35.2552703,40.7323602 C35.2552703,34.7065086 30.3525906,29.8042117 24.3267391,29.8042117 C18.3008875,29.8042117 13.3985906,34.7065086 13.3985906,40.7323602 C13.3985906,41.577993 12.7129734,42.2636102 11.8673406,42.2636102 C11.0217078,42.2636102 10.3360906,41.577993 10.3360906,40.7323602 C10.3360906,33.0179227 16.6123016,26.7417117 24.3267391,26.7417117 C32.0411766,26.7417117 38.3177703,33.0179227 38.3177703,40.7323602" id="path-1"></path>
    </defs>
    <g id="person-icon" stroke="none" stroke-width="1" fill="none" fill-rule="evenodd">
        <g id="Group-14" transform="translate(0.000000, 0.000000)">
            <circle id="Oval-Copy-15" fill="#F2F2F2" cx="27" cy="27" r="27"></circle>
            <g id="Icons/person-Copy-19" transform="translate(2.000000, 2.000000)">
                <mask id="mask-2" fill="white">
                    <use xlink:href="#path-1"></use>
                </mask>
                <use id="icon" fill="#2D3737" xlink:href="#path-1"></use>
            </g>
        </g>
    </g>
</svg>