<?xml version="1.0" encoding="UTF-8"?>
<svg width="54px" height="55px" viewBox="0 0 54 55" version="1.1" xmlns="http://www.w3.org/2000/svg" xmlns:xlink="http://www.w3.org/1999/xlink">
    <title>bag-icon</title>
    <defs>
        <path d="M24.3750108,15.8442389 C25.0471514,15.8442389 25.5937608,16.3908666 25.5937608,17.0630297 C25.5937608,17.7351927 25.0471514,18.2818204 24.3750108,18.2818204 C23.7028701,18.2818204 23.1562608,17.7351927 23.1562608,17.0630297 C23.1562608,16.3908666 23.7028701,15.8442389 24.3750108,15.8442389 L24.3750108,15.8442389 Z M14.6250108,15.8442389 C15.2971514,15.8442389 15.8437608,16.3908666 15.8437608,17.0630297 C15.8437608,17.7351927 15.2971514,18.2818204 14.6250108,18.2818204 C13.9528701,18.2818204 13.4062608,17.7351927 13.4062608,17.0630297 C13.4062608,16.3908666 13.9528701,15.8442389 14.6250108,15.8442389 L14.6250108,15.8442389 Z M6.27139357,35.2339808 L9.59522951,10.858166 L13.4062608,10.858166 L13.4062608,13.6199458 C11.9885498,14.1236111 10.9687608,15.4746406 10.9687608,17.0630297 C10.9687608,19.0792142 12.6088936,20.7194019 14.6250108,20.7194019 C16.6411279,20.7194019 18.2812608,19.0792142 18.2812608,17.0630297 C18.2812608,15.4746406 17.2614717,14.1236111 15.8437608,13.6199458 L15.8437608,10.858166 L23.1562608,10.858166 L23.1562608,13.6199458 C21.7385498,14.1236111 20.7187608,15.4746406 20.7187608,17.0630297 C20.7187608,19.0792142 22.3588936,20.7194019 24.3750108,20.7194019 C26.3911279,20.7194019 28.0312608,19.0792142 28.0312608,17.0630297 C28.0312608,15.4746406 27.0114717,14.1236111 25.5937608,13.6199458 L25.5937608,10.858166 L29.404792,10.858166 L32.7286279,35.2339808 L6.27139357,35.2339808 Z M15.8437608,7.31270371 C15.8437608,5.29651913 17.4838936,3.65633148 19.5000108,3.65633148 C21.5161279,3.65633148 23.1562608,5.29651913 23.1562608,7.31270371 L23.1562608,8.4205845 L15.8437608,8.4205845 L15.8437608,7.31270371 Z M35.3324873,36.2882348 L31.6762373,9.47483849 C31.5939717,8.87062298 31.0781358,8.4205845 30.4687608,8.4205845 L25.5937608,8.4205845 L25.5937608,7.31270371 C25.5937608,3.95249764 22.8601045,1.21875 19.5000108,1.21875 C16.139917,1.21875 13.4062608,3.95249764 13.4062608,7.31270371 L13.4062608,8.4205845 L8.53126076,8.4205845 C7.92188576,8.4205845 7.40604982,8.87062298 7.3237842,9.47483849 L3.6675342,36.2882348 C3.61969826,36.636809 3.72542482,36.9890395 3.95668263,37.2544312 C4.18824513,37.5195182 4.5230967,37.6715623 4.87501076,37.6715623 L34.1250108,37.6715623 C34.4769248,37.6715623 34.8117764,37.5195182 35.0433389,37.2544312 C35.2745967,36.9890395 35.3803233,36.636809 35.3324873,36.2882348 L35.3324873,36.2882348 Z" id="path-1"></path>
    </defs>
    <g id="bag-icon" stroke="none" stroke-width="1" fill="none" fill-rule="evenodd">
        <g id="Group-15" transform="translate(0.000000, 0.000000)">
            <circle id="Oval-Copy-16" fill="#F2F2F2" cx="27" cy="27" r="27"></circle>
            <g id="Icons/person-Copy-20" transform="translate(7.000000, 7.000000)">
                <mask id="mask-2" fill="white">
                    <use xlink:href="#path-1"></use>
                </mask>
                <use id="icon" fill="#2D3737" xlink:href="#path-1"></use>
            </g>
        </g>
    </g>
</svg>