<?xml version="1.0" encoding="UTF-8"?>
<svg width="54px" height="54px" viewBox="0 0 54 54" version="1.1" xmlns="http://www.w3.org/2000/svg" xmlns:xlink="http://www.w3.org/1999/xlink">
    <title>door-icon</title>
    <g id="door-icon" stroke="none" stroke-width="1" fill="none" fill-rule="evenodd">
        <g id="Group-16" fill-rule="nonzero">
            <circle id="Oval" fill="#F2F2F2" cx="27" cy="27" r="27"></circle>
            <path d="M39.3788265,16.6643669 L27.325255,16.6643669 C26.736352,16.6643669 25.9366837,16.9188068 25.4655612,17.2560877 L13.067602,26.1318993 C12.5572194,26.4974513 12.1721939,27.2325 12.1721939,27.8413149 L12.1721939,36.8814935 C12.1721939,37.6066802 12.7900255,38.1964286 13.5497449,38.1964286 L39.3788265,38.1964286 C40.1385459,38.1964286 40.7563776,37.6066802 40.7563776,36.8814935 L40.7563776,17.9793019 C40.7563776,17.2541153 40.1385459,16.6643669 39.3788265,16.6643669 L39.3788265,16.6643669 Z M39.7232143,36.8814935 C39.7232143,37.0596672 39.5654847,37.2102273 39.3788265,37.2102273 L13.5497449,37.2102273 C13.3630867,37.2102273 13.2053571,37.0596672 13.2053571,36.8814935 L13.2053571,27.8413149 C13.2053571,27.5457833 13.4398852,27.0983766 13.6875,26.9208604 L26.0854592,18.0450487 C26.3737117,17.8386039 26.9646811,17.6505682 27.325255,17.6505682 L39.3788265,17.6505682 C39.5654847,17.6505682 39.7232143,17.8011282 39.7232143,17.9793019 L39.7232143,36.8814935 L39.7232143,36.8814935 Z" id="Shape" fill="#2D3737"></path>
            <path d="M37.6568877,18.3080357 L28.1862244,18.3080357 C27.595255,18.3080357 26.7962755,18.5674066 26.3279082,18.9112622 L16.4997704,26.1276258 C15.9997194,26.4948214 16.0327806,26.8511688 16.0968367,27.0309862 C16.1608929,27.2108036 16.3627041,27.5125812 16.9936224,27.5125812 L37.6568877,27.5125812 C38.4166071,27.5125812 39.0344388,26.9228328 39.0344388,26.1976461 L39.0344388,19.6229708 C39.0344388,18.8977841 38.4166071,18.3080357 37.6568877,18.3080357 L37.6568877,18.3080357 Z M38.0012755,26.1976461 C38.0012755,26.3758198 37.8435459,26.5263799 37.6568877,26.5263799 L17.6514031,26.5263799 L26.9577934,19.6929911 C27.2422576,19.4842451 27.8277168,19.294237 28.1862244,19.294237 L37.6568877,19.294237 C37.8435459,19.294237 38.0012755,19.4447971 38.0012755,19.6229708 L38.0012755,26.1976461 L38.0012755,26.1976461 Z" id="Shape" fill="#2D3737"></path>
            <path d="M37.6568877,28.9918831 L33.3520408,28.9918831 C33.0668877,28.9918831 32.8354591,29.2127922 32.8354591,29.4849838 C32.8354591,29.7571753 33.0668877,29.9780844 33.3520408,29.9780844 L37.6568877,29.9780844 C37.9420408,29.9780844 38.1734694,29.7571753 38.1734694,29.4849838 C38.1734694,29.2127922 37.9420408,28.9918831 37.6568877,28.9918831 L37.6568877,28.9918831 Z" id="Shape" fill="#2D3737"></path>
        </g>
    </g>
</svg>